# xmcd
#
# Track frame offsets:
#	150
#	12160
#	25138
#	38964
#	51950
#	63785
#	77651
#	90849
#	104853
#	118177
#	132255
#	145908
#	159110
#	173038
#	187402
#
# Disc length: 2691 seconds
#
# Revision: 1
# Processed by: cddbd v1.5.2PL0 Copyright (c) Steve Scherf et al.
# Submitted via: audiograbber 1.83.01
#
DISCID=c50a810f
DTITLE=Marcos e Belutti - Nosso Lugar (Promo)
DYEAR=2010
DGENRE=Sertanejo Universitario
TTITLE0=Sera Que Vai Rolar
TTITLE1=Perdoa Amor
TTITLE2=Amor Pra Vida Inteira
TTITLE3=To Fora
TTITLE4=To No Buteco
TTITLE5=Sem Me Controlar
TTITLE6=Desencana De Mim
TTITLE7=A Canção Pra Nos Dois
TTITLE8=Objeto De Prazer
TTITLE9=Vai Sofrer Pra La
TTITLE10=Pessoa Errada
TTITLE11=Bateu Levou
TTITLE12=Fique Com Meu Travesseiro
TTITLE13=Eu Acabo Voltando
TTITLE14=Nosso Lugar
EXTD=
EXTT0=
EXTT1=
EXTT2=
EXTT3=
EXTT4=
EXTT5=
EXTT6=
EXTT7=
EXTT8=
EXTT9=
EXTT10=
EXTT11=
EXTT12=
EXTT13=
EXTT14=
PLAYORDER=
